<?xml version="1.0" encoding="iso-8859-1"?>
<!-- Generator: Adobe Illustrator 19.0.0, SVG Export Plug-In . SVG Version: 6.00 Build 0)  -->
<svg version="1.1" id="Capa_1" xmlns="http://www.w3.org/2000/svg" xmlns:xlink="http://www.w3.org/1999/xlink" x="0px" y="0px"
	 viewBox="0 0 512.007 512.007" style="enable-background:new 0 0 512.007 512.007;" xml:space="preserve">
<g>
	<g>
		<g>
			<path d="M181.337,320.007c-11.76,0-21.333,9.573-21.333,21.333s9.573,21.333,21.333,21.333c11.76,0,21.333-9.573,21.333-21.333
				S193.097,320.007,181.337,320.007z M188.468,338.788c-2.945,0-5.333-2.388-5.333-5.333s2.388-5.333,5.333-5.333
				c2.947,0,5.333,2.388,5.333,5.333S191.415,338.788,188.468,338.788z"/>
			<path d="M330.67,320.007c-11.76,0-21.333,9.573-21.333,21.333s9.573,21.333,21.333,21.333s21.333-9.573,21.333-21.333
				S342.431,320.007,330.67,320.007z M337.802,338.788c-2.945,0-5.333-2.388-5.333-5.333s2.388-5.333,5.333-5.333
				c2.947,0,5.333,2.388,5.333,5.333S340.748,338.788,337.802,338.788z"/>
			<path d="M443.254,97.799l-32-21.333c-4.208-2.823-9.844-2.26-13.458,1.333l-20.814,20.814
				c3.668-12.038,9.952-25.512,18.03-32.503c4.397,2.253,9.052,3.772,13.878,3.772c7.885,0,15.771-3,21.771-9
				c9.208-9.208,15.073-36.844,17.167-48.292c0.635-3.448-0.469-6.979-2.948-9.458c-2.479-2.479-6.031-3.604-9.458-2.948
				c-11.448,2.094-39.083,7.958-48.292,17.167c-8.938,8.938-11.172,22.04-6.797,33.111c-9.574,8.611-16.391,21.345-21.003,33.788
				l-7.878-23.617c-1.208-3.625-4.271-6.333-8.021-7.083l-53.333-10.667c-5.323-1.115-10.51,1.979-12.208,7.083L262.004,97.59
				l-19.792-19.792c-2.854-2.844-7.083-3.865-10.917-2.573l-32,10.667c-1.948,0.646-3.667,1.844-4.958,3.448l-11.095,13.871
				c-4.173-5.402-8.837-12.796-11.118-20.289c11.646-4.79,19.88-16.229,19.88-29.582c0-13.635-16.24-38.615-23.219-48.729
				c-4-5.771-13.563-5.771-17.563,0c-6.979,10.115-23.219,35.094-23.219,48.729c0,14.227,9.393,26.172,22.255,30.322
				c3.099,15.865,13.361,29.656,19.337,36.609l-10.478,13.1l-34.24-34.24c-3.75-3.76-9.698-4.188-13.938-0.99l-42.667,32
				c-2.688,2.01-4.271,5.177-4.271,8.531c0,1.406,0.135,34.781,11.792,58.104c13.906,27.813,17.281,64.667,20.854,103.677
				c2.323,25.323,4.719,51.5,10.302,75.323c21.479,91.667,70.229,136.229,149.052,136.229s127.573-44.562,149.052-136.229
				c5.583-23.823,7.979-50,10.302-75.323c3.573-39.01,6.948-75.865,20.854-103.677c11.656-23.323,11.792-56.698,11.792-58.104v-32
				C448.004,103.111,446.222,99.778,443.254,97.799z M181.337,384.007c-34.979,0-51.719-36.771-52.417-38.333
				c-1.219-2.76-1.219-5.906,0-8.667c0.698-1.563,17.438-38.333,52.417-38.333c34.979,0,51.719,36.771,52.417,38.333
				c1.219,2.76,1.219,5.906,0,8.667C233.056,347.236,216.316,384.007,181.337,384.007z M256.002,458.674
				c-17.671,0-31.999-11.965-31.999-19.63c0-3.833,16.004,0,32.005,0c15.999,0.001,31.995-3.832,31.995,0
				C288.004,446.709,273.675,458.674,256.002,458.674z M383.087,345.674c-0.698,1.563-17.438,38.333-52.417,38.333
				s-51.719-36.771-52.417-38.333c-1.219-2.76-1.219-5.906,0-8.667c0.698-1.563,17.438-38.333,52.417-38.333
				s51.719,36.771,52.417,38.333C384.306,339.767,384.306,342.913,383.087,345.674z"/>
		</g>
	</g>
</g>
<g>
</g>
<g>
</g>
<g>
</g>
<g>
</g>
<g>
</g>
<g>
</g>
<g>
</g>
<g>
</g>
<g>
</g>
<g>
</g>
<g>
</g>
<g>
</g>
<g>
</g>
<g>
</g>
<g>
</g>
</svg>
